HIERARCHY
ROOT hip
{
	OFFSET 0.000000 0.000000 0.000000
	CHANNELS 6 Xposition Yposition Zposition Xrotation Zrotation Yrotation 
	JOINT abdomen
	{
		OFFSET 0.000000 3.422050 0.000000
		CHANNELS 3 Xrotation Zrotation Yrotation 
		JOINT chest
		{
			OFFSET 0.000000 8.486693 -0.684411
			CHANNELS 3 Xrotation Zrotation Yrotation 
			JOINT neck
			{
				OFFSET 0.000000 10.266162 -0.273764
				CHANNELS 3 Xrotation Zrotation Yrotation 
				JOINT head
				{
					OFFSET 0.000000 3.148285 0.000000
					CHANNELS 3 Xrotation Zrotation Yrotation 
					End Site
					{
						OFFSET 0.000000 3.148289 0.000000
					}
				}
			}
			JOINT lCollar
			{
				OFFSET 3.422053 6.707223 -0.821293
				CHANNELS 3 Yrotation Zrotation Xrotation 
				JOINT lShldr
				{
					OFFSET 3.285171 0.000000 0.000000
					CHANNELS 3 Zrotation Yrotation Xrotation 
					JOINT lForeArm
					{
						OFFSET 10.129278 0.000000 0.000000
						CHANNELS 3 Yrotation Zrotation Xrotation 
						JOINT lHand
						{
							OFFSET 8.486692 0.000000 0.000000
							CHANNELS 3 Zrotation Yrotation Xrotation 
							End Site
							{
								OFFSET 4.106464 0.000000 0.000000
							}
						}
					}
				}
			}
			JOINT rCollar
			{
				OFFSET -3.558935 6.707223 -0.821293
				CHANNELS 3 Yrotation Zrotation Xrotation 
				JOINT rShldr
				{
					OFFSET -3.148289 0.000000 0.000000
					CHANNELS 3 Zrotation Yrotation Xrotation 
					JOINT rForeArm
					{
						OFFSET -10.266159 0.000000 0.000000
						CHANNELS 3 Yrotation Zrotation Xrotation 
						JOINT rHand
						{
							OFFSET -8.349810 0.000000 0.000000
							CHANNELS 3 Zrotation Yrotation Xrotation 
							End Site
							{
								OFFSET -4.106464 0.000000 0.000000
							}
						}
					}
				}
			}
		}
	}
	JOINT lThigh
	{
		OFFSET 5.338403 -1.642589 1.368821
		CHANNELS 3 Xrotation Zrotation Yrotation 
		JOINT lShin
		{
			OFFSET -2.053232 -20.121670 0.000000
			CHANNELS 3 Xrotation Zrotation Yrotation 
			JOINT lFoot
			{
				OFFSET 0.000000 -19.300380 -1.231939
				CHANNELS 3 Xrotation Yrotation Zrotation 
				End Site
				{
					OFFSET 0.000000 -2.463878 4.653993
				}
			}
		}
	}
	JOINT rThigh
	{
		OFFSET -5.338403 -1.642589 1.368821
		CHANNELS 3 Xrotation Zrotation Yrotation 
		JOINT rShin
		{
			OFFSET 2.053232 -20.121670 0.000000
			CHANNELS 3 Xrotation Zrotation Yrotation 
			JOINT rFoot
			{
				OFFSET 0.000000 -19.300380 -1.231939
				CHANNELS 3 Xrotation Yrotation Zrotation 
				End Site
				{
					OFFSET 0.000000 -2.463878 4.653993
				}
			}
		}
	}
}
MOTION
Frames: 18
Frame Time: 0.033264
-0.465591 5.669603 0.946182 -87.857460 0.000000 0.000000 -3.560041 -0.874510 -0.761984 -3.349822 3.643952 -1.822666 1.888321 19.449564 0.998860 -3.028611 9.356576 0.354772 -19.952190 -24.026342 -7.936810 -52.596390 -16.066740 -7.169312 -22.365343 3.910712 6.123739 -50.472210 0.301142 9.428136 -5.876103 20.155546 -16.634678 58.506466 11.876664 -4.454712 82.915260 31.934038 -11.565499 27.653685 -0.783715 0.352752 -12.042263 6.338576 -6.752686 35.149063 -10.990878 16.769199 26.032993 -0.658857 2.627476 -10.076382 -4.454335 12.330853 29.413992 10.204136 -17.669676 25.916140 -4.134320 7.609773 
-0.465591 5.639712 0.946182 -87.707062 0.000000 0.000000 -3.315979 -0.873822 -0.761077 -4.036432 3.645511 -1.822683 1.737593 19.532221 0.948462 -3.132043 9.443354 0.337469 -19.862652 -24.149174 -7.737949 -52.596390 -16.066740 -7.169312 -22.365343 3.910712 6.123739 -50.472210 0.301142 9.428136 -5.974368 20.191771 -16.377485 58.506466 11.876664 -4.454712 82.915260 31.934038 -11.565499 27.653685 -0.783715 0.352752 -12.209768 6.531031 -6.226182 35.149063 -10.990878 16.769199 26.016804 -1.101367 3.018801 -10.255464 -4.664948 11.650482 29.413992 10.204136 -17.669676 25.852558 -3.529733 7.141243 
-0.465591 5.609821 0.946182 -87.556671 0.000000 0.000000 -3.071923 -0.873138 -0.760167 -4.722920 3.647070 -1.822719 1.586714 19.614756 0.897809 -3.235527 9.530097 0.320002 -19.772573 -24.271727 -7.538694 -52.596390 -16.066740 -7.169312 -22.365343 3.910712 6.123739 -50.472210 0.301142 9.428136 -6.072826 20.227579 -16.120176 58.506466 11.876664 -4.454712 82.915260 31.934038 -11.565499 27.653685 -0.783715 0.352752 -12.375524 6.724977 -5.700110 35.149063 -10.990878 16.769199 26.003643 -1.543919 3.410020 -10.432042 -4.877621 10.970709 29.413992 10.204136 -17.669676 25.793968 -2.924758 6.673746 
-0.465591 5.579930 0.946182 -87.406258 0.000000 0.000000 -2.827876 -0.872458 -0.759255 -5.409240 3.648628 -1.822773 1.435681 19.697166 0.846899 -3.339064 9.616812 0.302372 -19.681929 -24.393976 -7.339034 -52.596390 -16.066740 -7.169312 -22.365343 3.910712 6.123739 -50.472210 0.301142 9.428136 -6.171472 20.262970 -15.862745 58.506466 11.876664 -4.454712 82.915260 31.934038 -11.565499 27.653685 -0.783715 0.352752 -12.539518 6.920392 -5.174496 35.149063 -10.990878 16.769199 25.993504 -1.986469 3.801158 -10.606080 -5.092302 10.291578 29.413992 10.204136 -17.669676 25.740370 -2.319486 6.207219 
-0.465591 5.550040 0.946182 -87.255867 0.000000 0.000000 -2.583838 -0.871782 -0.758339 -6.095338 3.650185 -1.822847 1.284494 19.779444 0.795734 -3.442653 9.703493 0.284579 -19.590740 -24.515945 -7.138978 -52.596390 -16.066740 -7.169312 -22.365343 3.910712 6.123739 -50.472210 0.301142 9.428136 -6.270305 20.297943 -15.605202 58.506466 11.876664 -4.454712 82.915260 31.934038 -11.565499 27.653685 -0.783715 0.352752 -12.701728 7.117242 -4.649356 35.149063 -10.990878 16.769199 25.986385 -2.428971 4.192239 -10.777543 -5.308938 9.613132 29.413992 10.204136 -17.669676 25.691734 -1.714017 5.741599 
-0.465591 5.520149 0.946182 -87.105469 0.000000 0.000000 -2.339811 -0.871109 -0.757421 -6.781168 3.651740 -1.822939 1.133155 19.861599 0.744312 -3.546295 9.790141 0.266622 -19.499001 -24.637617 -6.938524 -52.596390 -16.066740 -7.169312 -22.365343 3.910712 6.123739 -50.472210 0.301142 9.428136 -6.369323 20.332497 -15.347551 58.506466 11.876664 -4.454712 82.915260 31.934038 -11.565499 27.653685 -0.783715 0.352752 -12.862135 7.315499 -4.124708 35.149063 -10.990878 16.769199 25.982298 -2.871382 4.583293 -10.946404 -5.527478 8.935412 29.413992 10.204136 -17.669676 25.648060 -1.108442 5.276822 
-0.465591 5.490258 0.946182 -86.955063 0.000000 0.000000 -2.095800 -0.870441 -0.756500 -7.466678 3.653292 -1.823049 0.981662 19.943617 0.692634 -3.649989 9.876754 0.248502 -19.406700 -24.758984 -6.737666 -52.596390 -16.066740 -7.169312 -22.365343 3.910712 6.123739 -50.472210 0.301142 9.428136 -6.468523 20.366631 -15.089795 58.506466 11.876664 -4.454712 82.915260 31.934038 -11.565499 27.653685 -0.783715 0.352752 -13.020720 7.515133 -3.600575 35.149063 -10.990878 16.769199 25.981220 -3.313657 4.974340 -11.112624 -5.747867 8.258460 29.413992 10.204136 -17.669676 25.609320 -0.502855 4.812821 
-0.465591 5.460367 0.946182 -86.804688 0.000000 0.000000 -1.851805 -0.869777 -0.755576 -8.151820 3.654843 -1.823178 0.830016 20.025509 0.640701 -3.753737 9.963334 0.230218 -19.313843 -24.880047 -6.536407 -52.596390 -16.066740 -7.169312 -22.365343 3.910712 6.123739 -50.472210 0.301142 9.428136 -6.567898 20.400345 -14.831937 58.506466 11.876664 -4.454712 82.915260 31.934038 -11.565499 27.653685 -0.783715 0.352752 -13.177464 7.716112 -3.076971 35.149063 -10.990878 16.769199 25.983173 -3.755753 5.365411 -11.276179 -5.970054 7.582317 29.413992 10.204136 -17.669676 25.575508 0.102647 4.349537 
-0.465591 5.430476 0.946182 -86.654297 0.000000 0.000000 -1.607829 -0.869117 -0.754649 -8.836549 3.656392 -1.823326 0.678217 20.107265 0.588511 -3.857539 10.049882 0.211771 -19.220446 -25.000820 -6.334751 -52.596390 -16.066740 -7.169312 -22.365343 3.910712 6.123739 -50.472210 0.301142 9.428136 -6.667451 20.433641 -14.573984 58.506466 11.876664 -4.454712 82.915260 31.934038 -11.565499 27.653685 -0.783715 0.352752 -13.332352 7.918408 -2.553916 35.149063 -10.990878 16.769199 25.988148 -4.197627 5.756530 -11.437039 -6.193982 6.907021 29.413992 10.204136 -17.669676 25.546606 0.707973 3.886904 
-0.465591 5.400586 0.946182 -86.503922 0.000000 0.000000 -1.363874 -0.868460 -0.753720 -9.520811 3.657937 -1.823492 0.526265 20.188887 0.536065 -3.961395 10.136391 0.193160 -19.126484 -25.121273 -6.132690 -52.596390 -16.066740 -7.169312 -22.365343 3.910712 6.123739 -50.472210 0.301142 9.428136 -6.767173 20.466509 -14.315933 58.506466 11.876664 -4.454712 82.915260 31.934038 -11.565499 27.653685 -0.783715 0.352752 -13.485366 8.121988 -2.031428 35.149063 -10.990878 16.769199 25.996149 -4.639233 6.147725 -11.595177 -6.419598 6.232612 29.413992 10.204136 -17.669676 25.522614 1.313028 3.424860 
-0.465591 5.370695 0.946182 -86.353546 0.000000 0.000000 -1.119943 -0.867808 -0.752788 -10.204557 3.659479 -1.823676 0.374160 20.270376 0.483363 -4.065303 10.222865 0.174385 -19.031969 -25.241415 -5.930226 -52.596390 -16.066740 -7.169312 -22.365343 3.910712 6.123739 -50.472210 0.301142 9.428136 -6.867064 20.498949 -14.057793 58.506466 11.876664 -4.454712 82.915260 31.934038 -11.565499 27.653685 -0.783715 0.352752 -13.636488 8.326823 -1.509523 35.149063 -10.990878 16.769199 26.007168 -5.080527 6.539017 -11.750556 -6.646840 5.559122 29.413992 10.204136 -17.669676 25.503506 1.917719 2.963342 
-0.465591 5.340804 0.946182 -86.203163 0.000000 0.000000 -0.876036 -0.867160 -0.751853 -10.887749 3.661017 -1.823878 0.221902 20.351736 0.430406 -4.169266 10.309303 0.155446 -18.936897 -25.361248 -5.727361 -52.596390 -16.066740 -7.169312 -22.365343 3.910712 6.123739 -50.472210 0.301142 9.428136 -6.967123 20.530968 -13.799562 58.506466 11.876664 -4.454712 82.915260 31.934038 -11.565499 27.653685 -0.783715 0.352752 -13.785704 8.532881 -0.988216 35.149063 -10.990878 16.769199 26.021223 -5.521471 6.930438 -11.903167 -6.875661 4.886594 29.413992 10.204136 -17.669676 25.489277 2.521957 2.502286 
-0.465591 5.310913 0.946182 -86.052811 0.000000 0.000000 -0.632158 -0.866515 -0.750916 -11.570329 3.662552 -1.824098 0.069491 20.432949 0.377192 -4.273285 10.395707 0.136343 -18.841274 -25.480764 -5.524094 -52.596390 -16.066740 -7.169312 -22.365343 3.910712 6.123739 -50.472210 0.301142 9.428136 -7.067342 20.562559 -13.541250 58.506466 11.876664 -4.454712 82.915260 31.934038 -11.565499 27.653685 -0.783715 0.352752 -13.933000 8.740129 -0.467528 35.149063 -10.990878 16.769199 26.038303 -5.962013 7.322009 -12.052980 -7.106000 4.215064 29.413992 10.204136 -17.669676 25.479923 3.125646 2.041631 
-0.465591 5.281022 0.946182 -85.902451 0.000000 0.000000 -0.388309 -0.865875 -0.749976 -12.252257 3.664083 -1.824338 -0.083073 20.514029 0.323723 -4.377357 10.482071 0.117076 -18.745100 -25.599960 -5.320423 -52.596390 -16.066740 -7.169312 -22.365343 3.910712 6.123739 -50.472210 0.301142 9.428136 -7.167720 20.593723 -13.282857 58.506466 11.876664 -4.454712 82.915260 31.934038 -11.565499 27.653685 -0.783715 0.352752 -14.078356 8.948538 0.052529 35.149063 -10.990878 16.769199 26.058409 -6.402114 7.713759 -12.199969 -7.337800 3.544562 29.413992 10.204136 -17.669676 25.475422 3.728698 1.581313 
-0.465591 5.251131 0.946182 -85.752106 0.000000 0.000000 -0.144492 -0.865239 -0.749034 -12.933477 3.665608 -1.824594 -0.235790 20.594973 0.269998 -4.481483 10.568398 0.097645 -18.648357 -25.718832 -5.116347 -52.596390 -16.066740 -7.169312 -22.365343 3.910712 6.123739 -50.472210 0.301142 9.428136 -7.268257 20.624464 -13.024389 58.506466 11.876664 -4.454712 82.915260 31.934038 -11.565499 27.653685 -0.783715 0.352752 -14.221766 9.158074 0.571937 35.149063 -10.990878 16.769199 26.081541 -6.841733 8.105712 -12.344115 -7.571002 2.875127 29.413992 10.204136 -17.669676 25.475779 4.331019 1.121271 
-0.465591 5.221241 0.946182 -85.601761 0.000000 0.000000 0.099290 -0.864607 -0.748089 -13.613946 3.667129 -1.824868 -0.388659 20.675777 0.216018 -4.585664 10.654684 0.078050 -18.551075 -25.837387 -4.911871 -52.596390 -16.066740 -7.169312 -22.365343 3.910712 6.123739 -50.472210 0.301142 9.428136 -7.368946 20.654768 -12.765848 58.506466 11.876664 -4.454712 82.915260 31.934038 -11.565499 27.653685 -0.783715 0.352752 -14.363207 9.368705 1.090683 35.149063 -10.990878 16.769199 26.107704 -7.280821 8.497893 -12.485397 -7.805552 2.206790 29.413992 10.204136 -17.669676 25.480980 4.932522 0.661443 
-0.465591 5.191350 0.946182 -85.451424 0.000000 0.000000 0.343036 -0.863979 -0.747141 -14.293623 3.668646 -1.825161 -0.541682 20.756437 0.161782 -4.689901 10.740934 0.058290 -18.453224 -25.955605 -4.706988 -52.596390 -16.066740 -7.169312 -22.365343 3.910712 6.123739 -50.472210 0.301142 9.428136 -7.469785 20.684649 -12.507236 58.506466 11.876664 -4.454712 82.915260 31.934038 -11.565499 27.653685 -0.783715 0.352752 -14.502674 9.580400 1.608751 35.149063 -10.990878 16.769199 26.136902 -7.719342 8.890333 -12.623796 -8.041389 1.539583 29.413992 10.204136 -17.669676 25.491014 5.533118 0.201766 
-0.465591 5.161458 0.946182 -85.301094 0.000000 0.000000 0.586743 -0.863356 -0.746191 -14.972451 3.670156 -1.825471 -0.694857 20.836962 0.107290 -4.794193 10.827145 0.038366 -18.354824 -26.073494 -4.501701 -52.596390 -16.066740 -7.169312 -22.365343 3.910712 6.123739 -50.472210 0.301142 9.428136 -7.570770 20.714090 -12.248561 58.506466 11.876664 -4.454712 82.915260 31.934038 -11.565499 27.653685 -0.783715 0.352752 -14.640147 9.793127 2.126127 35.149063 -10.990878 16.769199 26.169134 -8.157247 9.283053 -12.759300 -8.278459 0.873540 29.413992 10.204136 -17.669676 25.505880 6.132715 -0.257820 
